
<svg width="375px" height="812px" viewBox="0 0 375 812" version="1.1" xmlns="http://www.w3.org/2000/svg" xmlns:xlink="http://www.w3.org/1999/xlink">
    <defs>
        <rect id="path-3h5uh-v536-1" x="0" y="0" width="375" height="812"></rect>
    </defs>
    <g id="Pages" stroke="none" stroke-width="1" fill="none" fill-rule="evenodd">
        <g id="Background">
            <mask id="mask-3h5uh-v536-2" fill="white">
                <use xlink:href="#path-3h5uh-v536-1"></use>
            </mask>
            <g id="Mask"></g>
            <path d="M-24.4424719,635.256629 C-32.3796629,579.133371 -17.1995506,505.034157 -39.2848315,478.595618 C-68.331573,443.825843 -104.958989,467.112022 -180.240337,432.154607 C-208.574045,419.019775 -249.010562,400.25573 -269.444607,364.735393 C-313.765281,287.915393 -258.411348,142.775506 -165.942135,101.382022 C-100.117865,71.9224719 -72.1219101,120.352472 71.0477528,130.31618 C228.084045,141.236854 261.240112,87.6655056 369.677528,120.934157 C399.7,130.128539 506.467416,162.853034 539.585955,258.887416 C571.935169,352.70764 522.698315,473.754494 456.067191,493.68191 C393.507865,512.445955 338.341573,435.081798 272.179551,466.886854 C267.507303,469.119775 235.739775,484.956629 222.267191,518.03764 C214.442584,537.233258 213.335506,551.568989 217.613708,571.064831 C246.15382,700.686854 189.036067,757.466854 129.422697,773.134831 C69.8093258,788.802809 -7.0294382,758.461348 -24.4424719,635.256629 Z" id="Path" fill="#FFFFFF" fill-rule="nonzero" mask="url(#mask-3h5uh-v536-2)"></path>
            <path d="M251.989438,573.391573 C237.89764,625.217865 269.045955,661.094719 318.56427,674.548539 C368.082584,688.00236 422.854831,663.740449 436.946629,611.914157 C451.038427,560.087865 408.425281,497.209551 357.124382,497.99764 C300.550787,498.879551 266.062472,521.565281 251.989438,573.391573 Z" id="Path" fill="#FFFFFF" fill-rule="nonzero" mask="url(#mask-3h5uh-v536-2)"></path>
            <path d="M364.233309,873.182247 C352.535947,873.331422 340.920208,871.215994 330.026455,866.952584 C310.56814,858.959101 304.244657,846.574831 294.712522,827.810787 C284.115842,805.927826 270.882787,785.422893 255.308028,766.752584 C231.008589,737.386854 211.362634,723.370112 194.043421,710.985843 C174.191061,696.818989 158.50432,685.635618 144.299938,657.170562 C122.027016,612.605955 119.024769,574.045843 135.330724,542.559775 C148.465556,517.153258 175.129264,495.949888 204.851511,487.187079 C224.760163,481.313933 242.679825,482.083258 255.345556,489.32618 C269.399825,497.375955 274.897691,512.593596 280.207915,527.323371 C286.231174,544.004607 292.442073,561.248764 311.168589,568.341573 C314.377241,569.542472 331.227354,575.28427 347.758477,568.810674 C356.546464,565.739591 364.038442,559.788329 369.01814,551.923034 C386.806455,525.540787 406.54623,509.441236 427.843421,504.037191 C445.109137,499.721476 463.390902,502.736745 478.35623,512.368427 C492.615628,520.933933 502.474646,535.246956 505.395219,551.622809 C509.148028,573.051348 501.004432,597.18191 481.827578,621.387528 L481.827578,621.387528 C474.716005,630.356742 465.465331,638.913146 456.496118,647.18809 C442.573196,660.041461 429.400837,672.200562 428.181174,682.839775 C426.811398,694.792472 432.102859,702.035393 439.439601,712.036629 C448.939785,724.148464 456.318468,737.782849 461.262185,752.360562 C466.628702,768.291236 474.002972,790.11382 467.867129,810.84809 C462.237915,830.231348 444.487129,848.244831 419.399601,860.291348 C402.186487,868.603979 383.347703,873.006103 364.233309,873.182247 L364.233309,873.182247 Z M229.901511,485.216854 C221.633767,485.306701 213.420679,486.570253 205.508252,488.969663 C176.255106,497.58236 150.0605,518.447978 137.132073,543.385393 C121.107578,574.308539 124.128589,612.30573 146.101286,656.307416 C160.118028,684.340899 175.617129,695.411685 195.263084,709.428427 C212.676118,721.868989 232.434657,735.960787 256.884207,765.532921 C272.489196,784.307944 285.741035,804.919815 296.344994,826.910112 C306.027241,845.936854 311.881623,857.439213 330.70196,865.151236 C355.301623,875.246292 389.001848,872.656854 418.649039,858.452472 C443.248702,846.668652 460.567915,829.067978 466.140837,810.191348 C472.089039,790.02 464.827354,768.516404 459.535893,752.829663 C454.65839,738.431007 447.367835,724.966642 437.976005,713.01236 C430.470387,702.654607 424.841174,695.186517 426.379825,682.483258 C427.674545,671.224831 441.090837,658.78427 455.295219,645.668202 C464.189376,637.449551 473.402522,628.949438 480.420275,620.092809 L480.420275,620.092809 C499.18432,596.318764 507.271623,572.694831 503.59387,551.829213 C500.781869,535.970875 491.233431,522.110239 477.418028,513.832022 C464.095556,505.594607 417.016567,484.072247 370.631848,552.842472 C365.465351,561.067059 357.65837,567.292795 348.490275,570.499438 C331.339938,577.23573 313.889376,571.287528 310.549376,570.030337 C291.034769,562.637303 284.654994,544.980337 278.500387,527.905056 C273.058814,512.89382 267.917466,498.595618 254.463646,490.90236 C246.904523,486.918166 238.442462,484.959416 229.901511,485.216854 Z" id="Shape" fill="#E8ECEF" fill-rule="nonzero" mask="url(#mask-3h5uh-v536-2)"></path>
        </g>
    </g>
</svg>